# AST/ASF file generated using VICON BodyLanguage
# -----------------------------------------------
:version 1.10
:name VICON
:units
  mass 1.0
  length 0.45
  angle deg
:documentation
   .ast/.asf automatically generated from VICON data using
   VICON BodyBuilder and BodyLanguage model FoxedUp or BRILLIANT.MOD
:root
   order TX TY TZ RX RY RZ
   axis XYZ
   position 0 0 0  
   orientation 0 0 0 
:bonedata
  begin
     id 1 
     name lhipjoint
     direction 0.635376 -0.686425 0.353719 
     length 2.47244 
     axis 0 0 0  XYZ
  end
  begin
     id 2 
     name lfemur
     direction 0.34202 -0.939693 0  
     length 7.25268  
     axis 0 0 20  XYZ
    dof rx ry rz
    limits (-160.0 20.0)
           (-70.0 70.0)
           (-60.0 70.0)
  end
  begin
     id 3 
     name ltibia
     direction 0.34202 -0.939693 0   
     length 7.6767   
     axis 0 0 20   XYZ
    dof rx
    limits (-10.0 170.0)
  end
  begin
     id 4 
     name lfoot
     direction 0.0803374 -0.220725 0.972022   
     length 2.22945   
     axis -90 7.62852e-016 20   XYZ
    dof rx rz
    limits (-45.0 90.0)
           (-70.0 20.0)
  end
  begin
     id 5 
     name ltoes
     direction 1.53579e-011 -4.21994e-011 1   
     length 1.11848   
     axis -90 7.62852e-016 20   XYZ
    dof rx
    limits (-90.0 20.0)
  end
  begin
     id 6 
     name rhipjoint
     direction -0.664428 -0.664335 0.342336   
     length 2.55466  
     axis 0 0 0  XYZ 
  end
  begin
     id 7 
     name rfemur
     direction -0.34202 -0.939693 0   
     length 6.83172   
     axis 0 0 -20   XYZ
    dof rx ry rz
    limits (-160.0 20.0)
           (-70.0 70.0)
           (-70.0 60.0)
  end
  begin
     id 8 
     name rtibia
     direction -0.34202 -0.939693 0   
     length 7.62692   
     axis 0 0 -20   XYZ
    dof rx
    limits (-10.0 170.0)
 end
 begin
     id 9 
     name rfoot
     direction -0.0949276 -0.260811 0.960711   
     length 2.19684  
     axis -90 -7.62852e-016 -20   XYZ
    dof rx rz
    limits (-45.0 90.0)
           (-20.0 70.0)
  end
  begin
     id 10 
     name rtoes
     direction -1.53543e-011 -4.2183e-011 1   
     length 1.09848   
     axis -90 -7.62852e-016 -20   XYZ
    dof rx
    limits (-90.0 20.0)
  end
  begin
     id 11 
     name lowerback
     direction 0.0118782 0.999815 -0.0151555   
     length 2.15772   
     axis 0 0 0   XYZ
    dof rx ry rz
    limits (-20.0 45.0)
           (-30.0 30.0)
           (-30.0 30.0)
  end
  begin
     id 12 
     name upperback
     direction 0.00130825 0.999065 0.0432113   
     length 2.14863   
     axis 0 0 0   XYZ
    dof rx ry rz
    limits (-20.0 45.0)
           (-30.0 30.0)
           (-30.0 30.0)
  end
  begin
     id 13 
     name thorax
     direction -0.00347005 0.998773 0.0494011   
     length 2.14936   
     axis 0 0 0   XYZ
    dof rx ry rz
    limits (-20.0 45.0)
           (-30.0 30.0)
           (-30.0 30.0)
  end
  begin
     id 14 
     name lowerneck
     direction -0.0262159 0.99424 0.103921   
     length 1.69373   
     axis 0 0 0   XYZ
    dof rx ry rz
    limits (-20.0 45.0)
           (-30.0 30.0)
           (-30.0 30.0)
  end
  begin
     id 15 
     name upperneck
     direction 0.0353511 0.977394 -0.20845   
     length 1.70857   
     axis 0 0 0   XYZ
    dof rx ry rz
    limits (-20.0 45.0)
           (-30.0 30.0)
           (-30.0 30.0)
  end
  begin
     id 16
     name head
     direction 0.0139214 0.996594 -0.0812836  
     length 1.72777  
     axis 0 0 0   XYZ
    dof rx ry rz
    limits (-20.0 45.0)
           (-30.0 30.0)
           (-30.0 30.0)
  end
  begin
     id 17 
     name lclavicle
     direction 0.841247 0.537205 -0.0609508  
     length 3.55371  
     axis 0 0 0   XYZ
    dof ry rz
    limits (-20.0 10.0)
           (0.0 20.0)
  end
  begin
     id 18 
     name lhumerus
     direction 1 -4.48964e-011 1.60116e-018   
     length 4.91377   
     axis -180 -30 -90   XYZ
    dof rx ry rz
    limits (-60.0 90.0)
           (-90.0 90.0)
           (-90.0 90.0)
  end
  begin
     id 19
     name lradius
     direction 1 -4.48989e-011 -8.93847e-027   
     length 3.00291   
     axis -180 -30 -90   XYZ
    dof rx
    limits (-10.0 170.0)
  end
  begin
     id 20
     name lwrist
     direction 1 -4.48932e-011 -7.31504e-027   
     length 1.50145   
     axis 5.74121e-015 90 90   XYZ
    dof ry
    limits (-180.0 0.0)
 end
  begin
     id 21 
     name lhand
     direction 1 -4.48971e-011 -1.46301e-026   
     length 0.450922   
     axis 9.33524e-015 90 90   XYZ
    dof rx rz
    limits (-90.0 90.0)
           (-45.0 45.0)
  end
  begin
     id 22 
     name lfingers
     direction 1 -4.49039e-011 -2.92602e-026   
     length 0.363545   
     axis 1.86705e-014 90 90   XYZ
    dof rx
    limits (0.0 90.0)
  end
  begin
     id 23
     name lthumb
     direction 0.707107 -6.34941e-011 0.707107   
     length 0.52198   
     axis -90 45 2.85299e-015   XYZ
    dof rx rz
    limits (-45.0 45.0)
           (-45.0 45.0)
  end
  begin
     id 24 
     name rclavicle
     direction -0.825079 0.56158 -0.0622297   
     length 3.39909  
     axis 0 0 0   XYZ 
    dof ry rz
    limits (-10.0 20.0)
           (-20.0 0.0)
  end
  begin
     id 25 
     name rhumerus
     direction -1 -4.48965e-011 1.61691e-027  
     length 4.86725   
     axis -180 30 90   XYZ
    dof rx ry rz
    limits (-90.0 60.0)
           (-90.0 90.0)
           (-90.0 90.0)
  end
  begin
     id 26 
     name rradius
     direction -1 -4.48964e-011 -2.25776e-027   
     length 3.17144   
     axis -180 30 90   XYZ
    dof rx
    limits (-10.0 170.0)
  end
  begin
     id 27 
     name rwrist
     direction -1 -4.48961e-011 -7.31504e-027   
     length 1.58572   
     axis 5.74121e-015 -90 -90   XYZ
    dof ry
    limits (-180.0 0.0)
  end
  begin
     id 28
     name rhand
     direction -1 -4.49013e-011 -1.46301e-026   
     length 0.419368   
     axis 9.33524e-015 -90 -90   XYZ
    dof rx rz
    limits (-90.0 90.0)
           (-45.0 45.0)
  end
  begin
     id 29
     name rfingers
     direction -1 -4.489e-011 -2.92602e-026   
     length 0.338105   
     axis 1.86705e-014 -90 -90   XYZ
    dof rx
    limits (0.0 90.0)
  end
  begin
     id 30
     name rthumb
     direction -0.707107 -6.35022e-011 0.707107   
     length 0.485453   
     axis -90 -45 -2.85299e-015   XYZ
    dof rx rz
    limits (-45.0 45.0)
           (-45.0 45.0)
  end
:hierarchy
  begin
    root lhipjoint rhipjoint lowerback
    lhipjoint lfemur
    lfemur ltibia
    ltibia lfoot
    lfoot ltoes
    rhipjoint rfemur
    rfemur rtibia
    rtibia rfoot
    rfoot rtoes
    lowerback upperback
    upperback thorax
    thorax lowerneck lclavicle rclavicle
    lowerneck upperneck
    upperneck head
    lclavicle lhumerus
    lhumerus lradius
    lradius lwrist
    lwrist lhand lthumb
    lhand lfingers
    rclavicle rhumerus
    rhumerus rradius
    rradius rwrist
    rwrist rhand rthumb
    rhand rfingers
  end

#!OML:ASF H:\Swim 2\Project 1\Capture day 1\Session 1\male.ASF
:FULLY-SPECIFIED
:DEGREES
82
root 7.75439 8.92832 12.5497 84.1002 -1.61745 181.133
lowerback 15.1998 0.0222537 -0.789067
upperback -10.5923 -0.452489 1.48952
thorax -21.2835 -0.0712801 2.45516
lowerneck -16.7686 -0.972384 -7.88298
upperneck 44.0736 -1.17041 1.57286
head 20.2683 -3.61299 1.23106
rclavicle 6.60959e-015 -1.90336e-014
rhumerus 35.6429 -57.8617 64.031
rradius 37.9697
rwrist -67.5472
rhand -14.0434 -23.156
rfingers 7.12502
rthumb 12.0873 -52.7869
lclavicle 6.60959e-015 -1.90336e-014
lhumerus 82.0243 53.0344 1.13637
lradius 33.687
lwrist 31.0021
lhand -10.4744 12.1114
lfingers 7.12502
lthumb 15.5268 41.508
rfemur 24.854 9.75946 23.7076
rtibia 20.4176
rfoot 7.53077 -7.37123
rtoes 15.8123
lfemur 14.4926 -8.22796 -30.6376
ltibia 24.8082
lfoot -4.6225 10.9361
ltoes -15.8332
83
root 7.75081 8.93239 12.5567 84.0764 -1.68931 181.077
lowerback 15.1964 0.0330654 -0.809267
upperback -10.592 -0.44618 1.46441
thorax -21.2809 -0.0684035 2.43399
lowerneck -16.7318 -0.924751 -7.8426
upperneck 44.097 -1.10675 1.54828
head 20.2669 -3.59211 1.22289
rclavicle -1.48095e-014 1.53064e-014
rhumerus 35.5779 -57.8877 64.0138
rradius 38.0129
rwrist -67.8154
rhand -14.024 -23.2204
rfingers 7.12502
rthumb 12.1059 -52.8502
lclavicle -1.48095e-014 1.53064e-014
lhumerus 83.2392 52.8871 2.56163
lradius 33.4585
lwrist 29.6375
lhand -10.1666 11.9457
lfingers 7.12502
lthumb 15.8232 41.319
rfemur 25.3049 9.74125 23.6855
rtibia 20.2654
rfoot 7.51518 -6.93515
rtoes 16.5314
lfemur 14.2807 -8.14145 -30.6334
ltibia 24.6381
lfoot -4.53986 11.3831
ltoes -15.4133
84
root 7.74779 8.93611 12.5612 84.0056 -1.77443 181.028
lowerback 15.2416 0.044433 -0.844684
upperback -10.5791 -0.440818 1.43515
thorax -21.2953 -0.0629937 2.4172
lowerneck -16.6865 -0.878947 -7.80543
upperneck 44.1148 -1.04495 1.5222
head 20.2593 -3.57219 1.21437
rclavicle 1.2424e-014 -7.92654e-015
rhumerus 35.5283 -57.8863 64.011
rradius 38.0426
rwrist -68.0114
rhand -14.0005 -23.2809
rfingers 7.12502
rthumb 12.1286 -52.9093
lclavicle 1.2424e-014 -7.92654e-015
lhumerus 84.425 52.6964 3.96186
lradius 33.2391
lwrist 28.349
lhand -9.88645 11.7715
lfingers 7.12502
lthumb 16.093 41.1233
rfemur 25.7302 9.72421 23.6591
rtibia 20.148
rfoot 7.3083 -6.67522
rtoes 17.6136
lfemur 14.17 -8.03938 -30.6566
ltibia 24.4877
lfoot -4.4984 11.7813
ltoes -14.9522
85
root 7.74523 8.93926 12.5633 83.9015 -1.86231 180.984
lowerback 15.323 0.0545616 -0.885249
upperback -10.5575 -0.436805 1.40515
thorax -21.3231 -0.0566632 2.40324
lowerneck -16.6387 -0.834468 -7.77302
upperneck 44.1294 -0.984841 1.49913
head 20.2491 -3.55289 1.20801
rclavicle -3.77691e-015 -6.21202e-017
rhumerus 35.5111 -57.8725 63.9983
rradius 38.0583
rwrist -68.1257
rhand -13.9715 -23.3412
rfingers 7.12502
rthumb 12.1566 -52.968
lclavicle -3.77691e-015 -6.21202e-017
lhumerus 85.419 52.4906 5.14818
lradius 33.0567
lwrist 27.2753
lhand -9.65908 11.6118
lfingers 7.12502
lthumb 16.3119 40.9457
rfemur 26.1031 9.69334 23.6271
rtibia 20.0687
rfoot 6.9688 -6.54412
rtoes 18.8142
lfemur 14.1426 -7.92468 -30.6942
ltibia 24.3697
lfoot -4.47427 12.098
ltoes -14.5697
86
root 7.74306 8.94172 12.5641 83.7957 -1.94174 180.94
lowerback 15.4081 0.0640391 -0.91804
upperback -10.535 -0.431404 1.37721
thorax -21.3522 -0.050601 2.38693
lowerneck -16.5959 -0.792627 -7.74244
upperneck 44.1432 -0.926785 1.47522
head 20.2401 -3.53434 1.2012
rclavicle -1.42131e-014 4.88265e-015
rhumerus 35.5313 -57.8592 63.9676
rradius 38.0622
rwrist -68.159
rhand -13.9406 -23.4028
rfingers 7.12502
rthumb 12.1864 -53.0278
lclavicle -1.42131e-014 4.88265e-015
lhumerus 86.107 52.3097 5.98792
lradius 32.931
lwrist 26.5152
lhand -9.5008 11.4873
lfingers 7.12502
lthumb 16.4643 40.8086
rfemur 26.3857 9.661 23.598
rtibia 20.0258
rfoot 6.57602 -6.50678
rtoes 19.8962
lfemur 14.1595 -7.80702 -30.7302
ltibia 24.2968
lfoot -4.45766 12.3129
ltoes -14.3194
87
root 7.74123 8.94329 12.5639 83.7003 -2.00595 180.894
lowerback 15.4858 0.0718144 -0.936618
upperback -10.5153 -0.424834 1.35348
thorax -21.38 -0.0458879 2.36725
lowerneck -16.5596 -0.752746 -7.71407
upperneck 44.1577 -0.871212 1.45426
head 20.2339 -3.51644 1.19576
rclavicle 1.19271e-015 4.96962e-015
rhumerus 35.6071 -57.8596 63.8947
rradius 38.0573
rwrist -68.1334
rhand -13.8956 -23.469
rfingers 7.12502
rthumb 12.2298 -53.0915
lclavicle 1.19271e-015 4.96962e-015
lhumerus 86.4704 52.1766 6.45758
lradius 32.8642
lwrist 26.0725
lhand -9.40055 11.4083
lfingers 7.12502
lthumb 16.5608 40.7217
rfemur 26.5622 9.62907 23.5766
rtibia 20.0179
rfoot 6.19268 -6.53226
rtoes 20.7106
lfemur 14.2046 -7.69134 -30.7558
ltibia 24.2771
lfoot -4.45144 12.4133
ltoes -14.2361
88
root 7.73962 8.94397 12.5647 83.6723 -2.02925 180.844
lowerback 15.4972 0.0764493 -0.913299
upperback -10.5124 -0.413945 1.34071
thorax -21.3844 -0.0458669 2.3351
lowerneck -16.5411 -0.714549 -7.68356
upperneck 44.1785 -0.818223 1.43673
head 20.2377 -3.49875 1.19092
rclavicle -2.93207e-015 1.36664e-015
rhumerus 35.6901 -57.8684 63.8245
rradius 38.0529
rwrist -68.1013
rhand -13.8479 -23.5359
rfingers 7.12502
rthumb 12.2758 -53.1556
lclavicle -2.93207e-015 1.36664e-015
lhumerus 86.4804 52.1222 6.51853
lradius 32.8594
lwrist 25.9432
lhand -9.35212 11.3802
lfingers 7.12502
lthumb 16.6075 40.6897
rfemur 26.5661 9.60032 23.578
rtibia 20.0451
rfoot 6.0136 -6.53452
rtoes 20.7593
lfemur 14.2151 -7.5869 -30.7331
ltibia 24.3127
lfoot -4.47409 12.398
ltoes -14.292
89
root 7.73822 8.94365 12.5666 83.7149 -2.00975 180.787
lowerback 15.4406 0.0762047 -0.847341
upperback -10.5269 -0.401092 1.33946
thorax -21.3652 -0.0516307 2.29156
lowerneck -16.5399 -0.676598 -7.64571
upperneck 44.2037 -0.767502 1.42263
head 20.2497 -3.47992 1.18595
rclavicle 2.31336e-014 -1.27098e-014
rhumerus 35.7673 -57.8845 63.7604
rradius 38.0526
rwrist -68.0846
rhand -13.8012 -23.603
rfingers 7.12502
rthumb 12.3208 -53.22
lclavicle 2.31336e-014 -1.27098e-014
lhumerus 86.0984 52.1578 6.12284
lradius 32.9194
lwrist 26.1204
lhand -9.35429 11.4053
lfingers 7.12502
lthumb 16.6054 40.7149
rfemur 26.3957 9.57545 23.603
rtibia 20.1033
rfoot 6.05643 -6.49993
rtoes 20.0445
lfemur 14.1861 -7.49607 -30.6598
ltibia 24.4044
lfoot -4.52184 12.269
ltoes -14.4744
90
root 7.73711 8.94223 12.5683 83.7852 -1.96395 180.729
lowerback 15.3623 0.0737664 -0.75741
upperback -10.5484 -0.385618 1.34601
thorax -21.3403 -0.0594694 2.24296
lowerneck -16.5448 -0.640596 -7.6053
upperneck 44.2294 -0.722133 1.41292
head 20.2644 -3.46181 1.18167
rclavicle -5.86415e-015 -2.00648e-015
rhumerus 35.8238 -57.8883 63.7276
rradius 38.0564
rwrist -68.1088
rhand -13.767 -23.6615
rfingers 7.12502
rthumb 12.3537 -53.2765
lclavicle -5.86415e-015 -2.00648e-015
lhumerus 85.5226 52.2359 5.50563
lradius 33.0069
lwrist 26.4154
lhand -9.37422 11.4542
lfingers 7.12502
lthumb 16.5862 40.7654
rfemur 26.1044 9.55328 23.6436
rtibia 20.1895
rfoot 6.18876 -6.46865
rtoes 18.956
lfemur 14.1657 -7.42326 -30.5655
ltibia 24.5481
lfoot -4.6043 12.0526
ltoes -14.7383
